Coordinates
version=1
nRows=11
nColumns=40
inDegrees=yes

Units are S.I. units (second, meters, Newtons, ...)
If the header above contains a line with 'inDegrees', this indicates whether rotational values are in degrees (yes) or radians (no).

endheader
time	pelvis_tilt	pelvis_list	pelvis_rotation	pelvis_tx	pelvis_ty	pelvis_tz	hip_flexion_r	hip_adduction_r	hip_rotation_r	knee_angle_r	knee_angle_r_beta	ankle_angle_r	subtalar_angle_r	mtp_angle_r	hip_flexion_l	hip_adduction_l	hip_rotation_l	knee_angle_l	knee_angle_l_beta	ankle_angle_l	subtalar_angle_l	mtp_angle_l	lumbar_extension	lumbar_bending	lumbar_rotation	arm_flex_r	arm_add_r	arm_rot_r	elbow_flex_r	pro_sup_r	wrist_flex_r	wrist_dev_r	arm_flex_l	arm_add_l	arm_rot_l	elbow_flex_l	pro_sup_l	wrist_flex_l	wrist_dev_l
      0.50000000	     -4.67937973	      6.57930230	    -84.66893616	      0.16816495	      0.99396290	     -0.25140645	     17.44965534	      7.50314786	     -7.42333784	     12.97848604	      0.22651731	      1.31267933	      0.00000000	      0.00000000	     22.12136002	     -4.92328998	      3.77048625	     63.70113812	      1.11179460	    -11.47099395	      0.00000000	      0.00000000	     -3.24007239	      3.64800841	     -4.99465008	      0.00000000	      0.00000000	      0.00000000	      0.00000000	      0.00000000	      0.00000000	      0.00000000	      0.00000000	      0.00000000	      0.00000000	      0.00000000	      0.00000000	      0.00000000	      0.00000000
      0.51000000	     -4.27338555	      6.57813051	    -84.97348127	      0.16725794	      0.99613944	     -0.23768749	     16.00974454	      7.34154708	     -7.02175645	     12.09719807	      0.21113594	      1.63731385	      0.00000000	      0.00000000	     23.62095533	     -4.58069057	      3.27349370	     63.29907043	      1.10477719	    -10.13824761	      0.00000000	      0.00000000	     -3.31365375	      3.08049602	     -4.61379388	      0.00000000	      0.00000000	      0.00000000	      0.00000000	      0.00000000	      0.00000000	      0.00000000	      0.00000000	      0.00000000	      0.00000000	      0.00000000	      0.00000000	      0.00000000	      0.00000000
      0.52000000	     -3.88338868	      6.60510601	    -85.30341604	      0.16636584	      0.99798930	     -0.22392529	     14.61875751	      7.17798393	     -6.58655964	     11.23186616	      0.19603305	      1.97433439	      0.00000000	      0.00000000	     25.05267988	     -4.27498485	      2.73032259	     62.60335622	      1.09263469	     -8.85748859	      0.00000000	     -0.00000000	     -3.33231702	      2.53239621	     -4.22717716	      0.00000000	      0.00000000	      0.00000000	      0.00000000	      0.00000000	     -0.00000000	      0.00000000	     -0.00000000	     -0.00000000	     -0.00000000	      0.00000000	      0.00000000	     -0.00000000	     -0.00000000
      0.53000000	     -3.52606130	      6.74435802	    -85.59973614	      0.16559261	      0.99937385	     -0.21021549	     13.37933238	      7.00523777	     -6.19528198	     10.39590892	      0.18144284	      2.36430357	      0.00000000	      0.00000000	     26.53320818	     -3.95429560	      2.26908469	     61.64421078	      1.07589444	     -7.64412825	      0.00000000	      0.00000000	     -3.20436931	      2.01851981	     -3.88487029	      0.00000000	      0.00000000	      0.00000000	      0.00000000	      0.00000000	      0.00000000	      0.00000000	      0.00000000	      0.00000000	      0.00000000	      0.00000000	      0.00000000	      0.00000000	      0.00000000
      0.54000000	     -3.17568674	      6.65211590	    -86.02530797	      0.16469017	      1.00077310	     -0.19627073	     11.85904881	      6.87799922	     -5.65629200	      9.51334221	      0.16603914	      2.72119990	      0.00000000	      0.00000000	     27.60278852	     -3.78388838	      1.59243316	     60.35680327	      1.05342494	     -6.45595282	      0.00000000	      0.00000000	     -3.32796716	      1.54324253	     -3.39657374	      0.00000000	      0.00000000	      0.00000000	      0.00000000	      0.00000000	      0.00000000	      0.00000000	      0.00000000	      0.00000000	      0.00000000	      0.00000000	      0.00000000	      0.00000000	      0.00000000
      0.55000000	     -2.90385400	      6.84253758	    -86.38440858	      0.16394748	      1.00136029	     -0.18249871	     10.72698183	      6.76616645	     -5.23326326	      8.74344228	      0.15260186	      3.15333602	      0.00000000	      0.00000000	     28.94386567	     -3.60105529	      1.08034134	     58.87289396	      1.02752584	     -5.26056074	      0.00000000	      0.00000000	     -3.11657187	      1.15011575	     -3.02137283	      0.00000000	      0.00000000	      0.00000000	      0.00000000	      0.00000000	      0.00000000	      0.00000000	      0.00000000	      0.00000000	      0.00000000	      0.00000000	      0.00000000	      0.00000000	      0.00000000
      0.56000000	     -2.64901371	      6.85413096	    -86.85169806	      0.16308650	      1.00189330	     -0.16851524	      9.37124829	      6.69835981	     -4.64774534	      7.92925484	      0.13839160	      3.57899445	      0.00000000	      0.00000000	     29.92729793	     -3.52949103	      0.45077654	     57.06956859	      0.99605187	     -4.09668728	      0.00000000	      0.00000000	     -3.09501133	      0.79204831	     -2.50358628	      0.00000000	      0.00000000	      0.00000000	      0.00000000	      0.00000000	      0.00000000	      0.00000000	      0.00000000	      0.00000000	      0.00000000	      0.00000000	      0.00000000	      0.00000000	      0.00000000
      0.57000000	     -2.48174642	      7.03164990	    -87.21961188	      0.16239656	      1.00178839	     -0.15459123	      8.24283932	      6.67044451	     -4.22626374	      7.18311579	      0.12536902	      4.04655764	      0.00000000	      0.00000000	     31.03820419	     -3.46470129	     -0.00780468	     55.05280461	      0.96085270	     -3.02852978	      0.00000000	      0.00000000	     -2.88212192	      0.51898555	     -2.09161983	      0.00000000	      0.00000000	      0.00000000	      0.00000000	      0.00000000	      0.00000000	      0.00000000	      0.00000000	      0.00000000	      0.00000000	      0.00000000	      0.00000000	      0.00000000	      0.00000000
      0.58000000	     -2.33435607	      7.07883113	    -87.69516954	      0.16163778	      1.00152337	     -0.14048313	      6.95903927	      6.67218686	     -3.61179570	      6.43516954	      0.11231490	      4.50412746	      0.00000000	      0.00000000	     31.84646314	     -3.49172315	     -0.55275045	     52.73573074	      0.92041213	     -2.00841066	      0.00000000	      0.00000000	     -2.79408752	      0.30607475	     -1.58397371	      0.00000000	      0.00000000	      0.00000000	      0.00000000	      0.00000000	      0.00000000	      0.00000000	      0.00000000	      0.00000000	      0.00000000	      0.00000000	      0.00000000	      0.00000000	      0.00000000
      0.59000000	     -2.23941752	      7.05613366	    -88.16495501	      0.16089699	      1.00097793	     -0.12626677	      5.59359789	      6.71398914	     -3.03912621	      5.67996647	      0.09913412	      4.95296973	      0.00000000	      0.00000000	     32.46391750	     -3.58099210	     -1.07727592	     50.15928357	      0.87544465	     -1.18377641	      0.00000000	      0.00000000	     -2.78335526	      0.14935567	     -1.08596933	      0.00000000	      0.00000000	      0.00000000	      0.00000000	      0.00000000	      0.00000000	      0.00000000	      0.00000000	      0.00000000	      0.00000000	      0.00000000	      0.00000000	      0.00000000	      0.00000000
      0.60000000	     -2.21523886	      7.05341949	    -88.57905436	      0.16030612	      1.00005460	     -0.11200066	      4.24804777	      6.79008475	     -2.57625266	      4.92976406	      0.08604061	      5.41111427	      0.00000000	     -0.00000000	     32.99911379	     -3.69760636	     -1.48959103	     47.32153881	      0.82591666	     -0.54404396	      0.00000000	     -0.00000000	     -2.75696487	      0.08431012	     -0.61148031	      0.00000000	      0.00000000	     -0.00000000	      0.00000000	      0.00000000	      0.00000000	      0.00000000	     -0.00000000	     -0.00000000	     -0.00000000	      0.00000000	      0.00000000	      0.00000000	      0.00000000
